<svg class="svg-icon" style="width: 1em; height: 1em;vertical-align: middle;fill: currentColor;overflow: hidden;" viewBox="0 0 1024 1024" version="1.1" xmlns="http://www.w3.org/2000/svg"><path d="M341.333333 128c0 14.506667 7.253333 29.44 21.333334 37.546667L512 256H106.666667A64 64 0 0 0 42.666667 320 64 64 0 0 0 106.666667 384h252.16L85.333333 554.666667c-35.84 21.333333-42.666667 52.053333-42.666666 85.333333 0 42.666667 32.853333 85.333333 85.333333 85.333333 29.44 0 59.306667-21.333333 85.333333-42.666666l85.333334-69.12c8.533333 180.906667 158.293333 325.12 341.333333 325.12a341.333333 341.333333 0 0 0 341.333333-341.333334c0-124.586667-66.986667-234.666667-166.826666-293.12-1.28-0.853333-2.56-2.133333-3.84-2.986666 0 0-3.413333-2.56-5.973334-3.84-132.266667-89.173333-248.746667-138.666667-397.226666-206.506667C398.506667 87.04 390.826667 85.333333 384 85.333333c-25.6 0-42.666667 19.626667-42.666667 42.666667m298.666667 256a213.333333 213.333333 0 0 1 213.333333 213.333333 213.333333 213.333333 0 0 1-213.333333 213.333334 213.333333 213.333333 0 0 1-213.333333-213.333334 213.333333 213.333333 0 0 1 213.333333-213.333333m0 64a149.333333 149.333333 0 0 0-149.333333 149.333333 149.333333 149.333333 0 0 0 149.333333 149.333334 149.333333 149.333333 0 0 0 149.333333-149.333334 149.333333 149.333333 0 0 0-149.333333-149.333333z" fill="" /></svg>